# xmcd CD database file
#
# Track frame offsets:
#	150
#	25022
#	49684
#	70230
#	102722
#	124538
#	148892
#	164304
#	203621
#	218726
#	246559
#	267946
#
# Disc length: 3759 seconds
#
# Revision: 0
# Processed by: cddbd v1.5.1PL0 Copyright (c) Steve Scherf et al.
# Submitted via: CDex 1.51
#
DISCID=b30ead0c
DTITLE=Andreas Oberg - Young Jazz Guitarist
DYEAR=2005
DGENRE=Jazz
TTITLE0=Stompin At The Savoy
TTITLE1=Le Q Theme
TTITLE2=My Kind Of Bebop
TTITLE3=Helen
TTITLE4=Flamingo
TTITLE5=Samba De Orfeo
TTITLE6=September Blues
TTITLE7=In A Sentimental Mood
TTITLE8=Gee Bee
TTITLE9=A Night In Tunisia
TTITLE10=Nuages
TTITLE11=Blues Jam
EXTD=YEAR: 2005
EXTT0=
EXTT1=
EXTT2=
EXTT3=
EXTT4=
EXTT5=
EXTT6=
EXTT7=
EXTT8=
EXTT9=
EXTT10=
EXTT11=
PLAYORDER=
